{
    "asset" : {
        "generator" : "Khronos glTF Blender I/O v1.3.48",
        "version" : "2.0"
    },
    "scene" : 0,
    "scenes" : [
        {
            "name" : "Scene",
            "nodes" : [
                0,
                1,
                2
            ]
        }
    ],
    "nodes" : [
        {
            "mesh" : 0,
            "name" : "DeskSurface"
        },
        {
            "mesh" : 1,
            "name" : "DeskLegs"
        },
        {
            "mesh" : 2,
            "name" : "Laptop",
            "translation" : [
                0,
                0.7207211256027222,
                0
            ]
        }
    ],
    "materials" : [
        {
            "doubleSided" : true,
            "emissiveFactor" : [
                0,
                0,
                0
            ],
            "name" : "VertexColorMaterial",
            "pbrMetallicRoughness" : {
                "metallicFactor" : 0,
                "roughnessFactor" : 0.5
            }
        }
    ],
    "meshes" : [
        {
            "name" : "DeskMesh",
            "primitives" : [
                {
                    "attributes" : {
                        "POSITION" : 0,
                        "NORMAL" : 1,
                        "TEXCOORD_0" : 2,
                        "COLOR_0" : 3
                    },
                    "indices" : 4,
                    "material" : 0
                }
            ]
        },
        {
            "name" : "DeskMesh.001",
            "primitives" : [
                {
                    "attributes" : {
                        "POSITION" : 5,
                        "NORMAL" : 6,
                        "TEXCOORD_0" : 7,
                        "COLOR_0" : 8
                    },
                    "indices" : 9,
                    "material" : 0
                }
            ]
        },
        {
            "name" : "Cube",
            "primitives" : [
                {
                    "attributes" : {
                        "POSITION" : 10,
                        "NORMAL" : 11,
                        "TEXCOORD_0" : 12,
                        "COLOR_0" : 13
                    },
                    "indices" : 14,
                    "material" : 0
                }
            ]
        }
    ],
    "accessors" : [
        {
            "bufferView" : 0,
            "componentType" : 5126,
            "count" : 24,
            "max" : [
                1.5,
                0.7200000286102295,
                0.800000011920929
            ],
            "min" : [
                -1.5,
                0.7000000476837158,
                -0.800000011920929
            ],
            "type" : "VEC3"
        },
        {
            "bufferView" : 1,
            "componentType" : 5126,
            "count" : 24,
            "type" : "VEC3"
        },
        {
            "bufferView" : 2,
            "componentType" : 5126,
            "count" : 24,
            "type" : "VEC2"
        },
        {
            "bufferView" : 3,
            "componentType" : 5126,
            "count" : 24,
            "type" : "VEC4"
        },
        {
            "bufferView" : 4,
            "componentType" : 5123,
            "count" : 36,
            "type" : "SCALAR"
        },
        {
            "bufferView" : 5,
            "componentType" : 5126,
            "count" : 80,
            "max" : [
                1.429666519165039,
                0.7099999785423279,
                0.7394407987594604
            ],
            "min" : [
                -1.429666519165039,
                2.9802322387695312e-08,
                -0.7394407987594604
            ],
            "type" : "VEC3"
        },
        {
            "bufferView" : 6,
            "componentType" : 5126,
            "count" : 80,
            "type" : "VEC3"
        },
        {
            "bufferView" : 7,
            "componentType" : 5126,
            "count" : 80,
            "type" : "VEC2"
        },
        {
            "bufferView" : 8,
            "componentType" : 5126,
            "count" : 80,
            "type" : "VEC4"
        },
        {
            "bufferView" : 9,
            "componentType" : 5123,
            "count" : 120,
            "type" : "SCALAR"
        },
        {
            "bufferView" : 10,
            "componentType" : 5126,
            "count" : 2739,
            "max" : [
                0.20000000298023224,
                0.3032394051551819,
                0.20011252164840698
            ],
            "min" : [
                -0.20000000298023224,
                2.378225326538086e-05,
                -0.2914777398109436
            ],
            "type" : "VEC3"
        },
        {
            "bufferView" : 11,
            "componentType" : 5126,
            "count" : 2739,
            "type" : "VEC3"
        },
        {
            "bufferView" : 12,
            "componentType" : 5126,
            "count" : 2739,
            "type" : "VEC2"
        },
        {
            "bufferView" : 13,
            "componentType" : 5126,
            "count" : 2739,
            "type" : "VEC4"
        },
        {
            "bufferView" : 14,
            "componentType" : 5123,
            "count" : 5028,
            "type" : "SCALAR"
        }
    ],
    "bufferViews" : [
        {
            "buffer" : 0,
            "byteLength" : 288,
            "byteOffset" : 0
        },
        {
            "buffer" : 0,
            "byteLength" : 288,
            "byteOffset" : 288
        },
        {
            "buffer" : 0,
            "byteLength" : 192,
            "byteOffset" : 576
        },
        {
            "buffer" : 0,
            "byteLength" : 384,
            "byteOffset" : 768
        },
        {
            "buffer" : 0,
            "byteLength" : 72,
            "byteOffset" : 1152
        },
        {
            "buffer" : 0,
            "byteLength" : 960,
            "byteOffset" : 1224
        },
        {
            "buffer" : 0,
            "byteLength" : 960,
            "byteOffset" : 2184
        },
        {
            "buffer" : 0,
            "byteLength" : 640,
            "byteOffset" : 3144
        },
        {
            "buffer" : 0,
            "byteLength" : 1280,
            "byteOffset" : 3784
        },
        {
            "buffer" : 0,
            "byteLength" : 240,
            "byteOffset" : 5064
        },
        {
            "buffer" : 0,
            "byteLength" : 32868,
            "byteOffset" : 5304
        },
        {
            "buffer" : 0,
            "byteLength" : 32868,
            "byteOffset" : 38172
        },
        {
            "buffer" : 0,
            "byteLength" : 21912,
            "byteOffset" : 71040
        },
        {
            "buffer" : 0,
            "byteLength" : 43824,
            "byteOffset" : 92952
        },
        {
            "buffer" : 0,
            "byteLength" : 10056,
            "byteOffset" : 136776
        }
    ],
    "buffers" : [
        {
            "byteLength" : 146832,
            "uri" : "data:application/octet-stream;base64,"
        }
    ]
}
