{
    "asset" : {
        "generator" : "Khronos glTF Blender I/O v1.3.48",
        "version" : "2.0"
    },
    "scene" : 0,
    "scenes" : [
        {
            "name" : "Scene",
            "nodes" : [
                0,
                3
            ]
        }
    ],
    "nodes" : [
        {
            "mesh" : 0,
            "name" : "Desk"
        },
        {
            "mesh" : 1,
            "name" : "Laptop-bottom",
            "rotation" : [
                0.0008726645028218627,
                0,
                0,
                1
            ],
            "translation" : [
                -0.0009107142686843872,
                -0.010481803677976131,
                -0.08767411857843399
            ]
        },
        {
            "mesh" : 2,
            "name" : "Laptop-top",
            "rotation" : [
                0,
                0.0008726645028218627,
                -0.9999996423721313,
                -2.821298892285995e-07
            ],
            "translation" : [
                -0.0004306510090827942,
                0.0026808814145624638,
                -0.21183127164840698
            ]
        },
        {
            "children" : [
                1,
                2
            ],
            "name" : "Laptop",
            "rotation" : [
                -0.0008726644446142018,
                0,
                0,
                1
            ],
            "translation" : [
                0,
                0.7318825721740723,
                6.482306616817368e-06
            ]
        }
    ],
    "materials" : [
        {
            "doubleSided" : true,
            "emissiveFactor" : [
                0,
                0,
                0
            ],
            "name" : "VertexColorMaterial",
            "pbrMetallicRoughness" : {
                "metallicFactor" : 0,
                "roughnessFactor" : 0.5
            }
        }
    ],
    "meshes" : [
        {
            "name" : "DeskMesh",
            "primitives" : [
                {
                    "attributes" : {
                        "POSITION" : 0,
                        "NORMAL" : 1,
                        "TEXCOORD_0" : 2,
                        "COLOR_0" : 3
                    },
                    "indices" : 4,
                    "material" : 0
                }
            ]
        },
        {
            "name" : "Laptop-bottom-mesh",
            "primitives" : [
                {
                    "attributes" : {
                        "POSITION" : 5,
                        "NORMAL" : 6,
                        "TEXCOORD_0" : 7,
                        "COLOR_0" : 8
                    },
                    "indices" : 9,
                    "material" : 0
                }
            ]
        },
        {
            "name" : "Laptop-top-mesh",
            "primitives" : [
                {
                    "attributes" : {
                        "POSITION" : 10,
                        "NORMAL" : 11,
                        "TEXCOORD_0" : 12,
                        "COLOR_0" : 13
                    },
                    "indices" : 14,
                    "material" : 0
                }
            ]
        }
    ],
    "accessors" : [
        {
            "bufferView" : 0,
            "componentType" : 5126,
            "count" : 640,
            "max" : [
                1.0909955501556396,
                0.7200000286102295,
                0.5831764340400696
            ],
            "min" : [
                -1.0909955501556396,
                0,
                -0.5831764340400696
            ],
            "type" : "VEC3"
        },
        {
            "bufferView" : 1,
            "componentType" : 5126,
            "count" : 640,
            "type" : "VEC3"
        },
        {
            "bufferView" : 2,
            "componentType" : 5126,
            "count" : 640,
            "type" : "VEC2"
        },
        {
            "bufferView" : 3,
            "componentType" : 5126,
            "count" : 640,
            "type" : "VEC4"
        },
        {
            "bufferView" : 4,
            "componentType" : 5123,
            "count" : 1176,
            "type" : "SCALAR"
        },
        {
            "bufferView" : 5,
            "componentType" : 5126,
            "count" : 1760,
            "max" : [
                0.20041702687740326,
                0.017504261806607246,
                0.20099543035030365
            ],
            "min" : [
                -0.19958285987377167,
                -0.001183551736176014,
                -0.12423796951770782
            ],
            "type" : "VEC3"
        },
        {
            "bufferView" : 6,
            "componentType" : 5126,
            "count" : 1760,
            "type" : "VEC3"
        },
        {
            "bufferView" : 7,
            "componentType" : 5126,
            "count" : 1760,
            "type" : "VEC2"
        },
        {
            "bufferView" : 8,
            "componentType" : 5126,
            "count" : 1760,
            "type" : "VEC4"
        },
        {
            "bufferView" : 9,
            "componentType" : 5123,
            "count" : 2664,
            "type" : "SCALAR"
        },
        {
            "bufferView" : 10,
            "componentType" : 5126,
            "count" : 156,
            "max" : [
                0.20001690089702606,
                1.3760291039943695e-06,
                0.32516971230506897
            ],
            "min" : [
                -0.19998298585414886,
                -0.006618224550038576,
                -6.366986781358719e-05
            ],
            "type" : "VEC3"
        },
        {
            "bufferView" : 11,
            "componentType" : 5126,
            "count" : 156,
            "type" : "VEC3"
        },
        {
            "bufferView" : 12,
            "componentType" : 5126,
            "count" : 156,
            "type" : "VEC2"
        },
        {
            "bufferView" : 13,
            "componentType" : 5126,
            "count" : 156,
            "type" : "VEC4"
        },
        {
            "bufferView" : 14,
            "componentType" : 5123,
            "count" : 252,
            "type" : "SCALAR"
        }
    ],
    "bufferViews" : [
        {
            "buffer" : 0,
            "byteLength" : 7680,
            "byteOffset" : 0
        },
        {
            "buffer" : 0,
            "byteLength" : 7680,
            "byteOffset" : 7680
        },
        {
            "buffer" : 0,
            "byteLength" : 5120,
            "byteOffset" : 15360
        },
        {
            "buffer" : 0,
            "byteLength" : 10240,
            "byteOffset" : 20480
        },
        {
            "buffer" : 0,
            "byteLength" : 2352,
            "byteOffset" : 30720
        },
        {
            "buffer" : 0,
            "byteLength" : 21120,
            "byteOffset" : 33072
        },
        {
            "buffer" : 0,
            "byteLength" : 21120,
            "byteOffset" : 54192
        },
        {
            "buffer" : 0,
            "byteLength" : 14080,
            "byteOffset" : 75312
        },
        {
            "buffer" : 0,
            "byteLength" : 28160,
            "byteOffset" : 89392
        },
        {
            "buffer" : 0,
            "byteLength" : 5328,
            "byteOffset" : 117552
        },
        {
            "buffer" : 0,
            "byteLength" : 1872,
            "byteOffset" : 122880
        },
        {
            "buffer" : 0,
            "byteLength" : 1872,
            "byteOffset" : 124752
        },
        {
            "buffer" : 0,
            "byteLength" : 1248,
            "byteOffset" : 126624
        },
        {
            "buffer" : 0,
            "byteLength" : 2496,
            "byteOffset" : 127872
        },
        {
            "buffer" : 0,
            "byteLength" : 504,
            "byteOffset" : 130368
        }
    ],
    "buffers" : [
        {
            "byteLength" : 130872,
            "uri" : "data:application/octet-stream;base64,"
        }
    ]
}
